mtllib material_0.mtl
usemtl material_0
v 0.00299900 0.01089700 0.04464500
v 0.00299900 0.01089700 0.04464500
v 0.00299900 0.01089700 0.04464500
v 0.00299900 0.01089700 0.04464500
v 0.00299900 0.01089700 0.04464500
v 0.00299900 0.01089700 0.04464500
v 0.00299900 0.01089700 0.04464500
v 0.00036000 0.01090000 0.04796800
v 0.00036000 0.01090000 0.04796800
v 0.00036000 0.01090000 0.04796800
v 0.00036000 0.01090000 0.04796800
v 0.00036000 0.01090000 0.04796800
v 0.00036000 0.01090000 0.04796800
v 0.00036000 0.01090000 0.04796800
v 0.00233900 0.01088500 0.04695500
v 0.00233900 0.01088500 0.04695500
v 0.00233900 0.01088500 0.04695500
v 0.00233900 0.01088500 0.04695500
v 0.00233900 0.01088500 0.04695500
v 0.00234600 0.01088700 0.04317900
v 0.00234600 0.01088700 0.04317900
v 0.00234600 0.01088700 0.04317900
v 0.00234600 0.01088700 0.04317900
v 0.00102600 0.01089500 0.04215000
v 0.00102600 0.01089500 0.04215000
v 0.00102600 0.01089500 0.04215000
v 0.00102600 0.01089500 0.04215000
v 0.00102600 0.01089500 0.04215000
v 0.00102600 0.01089500 0.04215000
v 0.00102600 0.01089500 0.04215000
v 0.00200000 0.01089700 0.04408600
v 0.00200000 0.01089700 0.04408600
v 0.00200000 0.01089700 0.04408600
v 0.00200000 0.01089700 0.04408600
v 0.00200000 0.01089700 0.04408600
v 0.00200000 0.01089700 0.04408600
v 0.00200000 0.01089700 0.04408600
v 0.00082700 0.01089100 0.04701900
v 0.00082700 0.01089100 0.04701900
v 0.00082700 0.01089100 0.04701900
v 0.00082700 0.01089100 0.04701900
v 0.00082700 0.01089100 0.04701900
v 0.00205100 0.01087000 0.04582400
v 0.00205100 0.01087000 0.04582400
v 0.00205100 0.01087000 0.04582400
v 0.00205100 0.01087000 0.04582400
v 0.00205100 0.01087000 0.04582400
v 0.00205100 0.01087000 0.04582400
v 0.00205100 0.01087000 0.04582400
v 0.00098500 0.01088800 0.04306600
v 0.00098500 0.01088800 0.04306600
v 0.00098500 0.01088800 0.04306600
v 0.00098500 0.01088800 0.04306600
v -0.00181900 0.00943800 0.04387900
v -0.00181900 0.00943800 0.04387900
v -0.00181900 0.00943800 0.04387900
v -0.00181900 0.00943800 0.04387900
v -0.00181900 0.00943800 0.04387900
v -0.00001100 0.00943000 0.04711700
v -0.00001100 0.00943000 0.04711700
v -0.00001100 0.00943000 0.04711700
v -0.00001100 0.00943000 0.04711700
v -0.00001100 0.00943000 0.04711700
v -0.00001100 0.00943000 0.04711700
v -0.00069800 0.00943200 0.04301600
v -0.00069800 0.00943200 0.04301600
v -0.00069800 0.00943200 0.04301600
v -0.00069800 0.00943200 0.04301600
v -0.00069800 0.00943200 0.04301600
v -0.00146500 0.00942900 0.04655200
v -0.00146500 0.00942900 0.04655200
v -0.00146500 0.00942900 0.04655200
v -0.00146500 0.00942900 0.04655200
v -0.00146500 0.00942900 0.04655200
v -0.00146500 0.00942900 0.04655200
v -0.00208600 0.00943100 0.04526900
v -0.00208600 0.00943100 0.04526900
v -0.00208600 0.00943100 0.04526900
v -0.00208600 0.00943100 0.04526900
v -0.00208600 0.00943100 0.04526900
v -0.00015600 0.00938800 0.04323400
v -0.00015600 0.00938800 0.04323400
v -0.00015600 0.00938800 0.04323400
v -0.00015600 0.00938800 0.04323400
v -0.00015600 0.00938800 0.04323400
v -0.00015600 0.00938800 0.04323400
v 0.00129800 0.00939100 0.04378800
v 0.00129800 0.00939100 0.04378800
v 0.00129800 0.00939100 0.04378800
v 0.00129800 0.00939100 0.04378800
v 0.00129800 0.00939100 0.04378800
v 0.00015600 0.00938800 0.04676600
v 0.00015600 0.00938800 0.04676600
v 0.00015600 0.00938800 0.04676600
v 0.00015600 0.00938800 0.04676600
v 0.00015600 0.00938800 0.04676600
v 0.00015600 0.00938800 0.04676600
v 0.00174100 0.00938900 0.04558600
v 0.00174100 0.00938900 0.04558600
v 0.00174100 0.00938900 0.04558600
v 0.00174100 0.00938900 0.04558600
v 0.00174100 0.00938900 0.04558600
v 0.00174100 0.00938900 0.04558600
v -0.00288700 0.00943500 0.04399500
v -0.00288700 0.00943500 0.04399500
v -0.00288700 0.00943500 0.04399500
v -0.00288700 0.00943500 0.04399500
v -0.00288700 0.00943500 0.04399500
v -0.00288700 0.00943500 0.04399500
v -0.00178500 0.00943400 0.04249600
v -0.00178500 0.00943400 0.04249600
v -0.00178500 0.00943400 0.04249600
v -0.00178500 0.00943400 0.04249600
v -0.00178500 0.00943400 0.04249600
v 0.00052100 0.00943400 0.04803000
v 0.00052100 0.00943400 0.04803000
v 0.00052100 0.00943400 0.04803000
v 0.00052100 0.00943400 0.04803000
v 0.00052100 0.00943400 0.04803000
v 0.00052100 0.00943400 0.04803000
v 0.00052100 0.00943400 0.04803000
v -0.00179200 0.00943400 0.04755100
v -0.00179200 0.00943400 0.04755100
v -0.00179200 0.00943400 0.04755100
v -0.00179200 0.00943400 0.04755100
v -0.00179200 0.00943400 0.04755100
v -0.00179200 0.00943400 0.04755100
v -0.00179200 0.00943400 0.04755100
v 0.00001500 0.00943800 0.04194200
v 0.00001500 0.00943800 0.04194200
v 0.00001500 0.00943800 0.04194200
v 0.00001500 0.00943800 0.04194200
v 0.00001500 0.00943800 0.04194200
v 0.00001500 0.00943800 0.04194200
v 0.00001500 0.00943800 0.04194200
v 0.00001500 0.00943800 0.04194200
v -0.00297500 0.00943700 0.04570300
v -0.00297500 0.00943700 0.04570300
v -0.00297500 0.00943700 0.04570300
v -0.00297500 0.00943700 0.04570300
v -0.00297500 0.00943700 0.04570300
v -0.00297500 0.00943700 0.04570300
v -0.00297500 0.00943700 0.04570300
v -0.00893100 0.00931400 0.03609000
v -0.00893100 0.00931400 0.03609000
v -0.00893100 0.00931400 0.03609000
v -0.00893100 0.00931400 0.03609000
v -0.00893100 0.00931400 0.03609000
v -0.00893100 0.00931400 0.03609000
v -0.00893100 0.00931400 0.03609000
v -0.00893100 0.00931400 0.03609000
v -0.00893100 0.00931400 0.03609000
v -0.00893100 0.00931400 0.03609000
v -0.00893100 0.00931400 0.03609000
v 0.00893100 0.00931400 0.03609000
v 0.00893100 0.00931400 0.03609000
v 0.00893100 0.00931400 0.03609000
v 0.00893100 0.00931400 0.03609000
v 0.00893100 0.00931400 0.03609000
v 0.00893100 0.00931400 0.03609000
v 0.00893100 0.00931400 0.03609000
v 0.00893100 0.00931400 0.03609000
v 0.00893100 0.00931400 0.03609000
v 0.00893100 0.00931400 0.03609000
v -0.00086000 0.00191300 0.04356500
v -0.00086000 0.00191300 0.04356500
v -0.00086000 0.00191300 0.04356500
v -0.00086000 0.00191300 0.04356500
v -0.00086000 0.00191300 0.04356500
v -0.00174000 0.00938900 0.04441400
v -0.00174000 0.00938900 0.04441400
v -0.00174000 0.00938900 0.04441400
v -0.00174000 0.00938900 0.04441400
v -0.00174000 0.00938900 0.04441400
v -0.00174000 0.00938900 0.04441400
v -0.00174000 0.00938900 0.04441400
v -0.00174000 0.00938900 0.04441400
v -0.00152600 0.00191300 0.04591800
v -0.00152600 0.00191300 0.04591800
v -0.00152600 0.00191300 0.04591800
v -0.00152600 0.00191300 0.04591800
v -0.00152600 0.00191300 0.04591800
v -0.00129700 0.00939100 0.04621200
v -0.00129700 0.00939100 0.04621200
v -0.00129700 0.00939100 0.04621200
v -0.00129700 0.00939100 0.04621200
v -0.00129700 0.00939100 0.04621200
v -0.00097000 0.01088500 0.04216800
v -0.00097000 0.01088500 0.04216800
v -0.00097000 0.01088500 0.04216800
v -0.00097000 0.01088500 0.04216800
v -0.00097000 0.01088500 0.04216800
v 0.00484300 -0.00001700 0.05371700
v 0.00484300 -0.00001700 0.05371700
v 0.00484300 -0.00001700 0.05371700
v 0.00484300 -0.00001700 0.05371700
v 0.00484300 -0.00001700 0.05371700
v 0.00484300 -0.00001700 0.05371700
v 0.00875700 -0.00003000 0.04727200
v 0.00875700 -0.00003000 0.04727200
v 0.00875700 -0.00003000 0.04727200
v 0.00875900 -0.00002900 0.04272800
v 0.00875900 -0.00002900 0.04272800
v 0.00875900 -0.00002900 0.04272800
v 0.00875900 -0.00002900 0.04272800
v -0.00226800 -0.00003600 0.05374600
v -0.00226800 -0.00003600 0.05374600
v -0.00226800 -0.00003600 0.05374600
v -0.00870900 -0.00001000 0.04993900
v -0.00870900 -0.00001000 0.04993900
v -0.00870900 -0.00001000 0.04993900
v -0.00870900 -0.00001000 0.04993900
v -0.00870900 -0.00001000 0.04993900
v -0.00875800 -0.00002900 0.04727200
v -0.00875800 -0.00002900 0.04727200
v -0.00875800 -0.00002900 0.04727200
v -0.00227400 -0.00003700 0.03625000
v -0.00227400 -0.00003700 0.03625000
v -0.00227400 -0.00003700 0.03625000
v -0.00227400 -0.00003700 0.03625000
v -0.00227400 -0.00003700 0.03625000
v -0.00224400 -0.00007500 0.04275600
v -0.00224400 -0.00007500 0.04275600
v -0.00224400 -0.00007500 0.04275600
v -0.00224400 -0.00007500 0.04275600
v -0.00224400 -0.00007500 0.04275600
v -0.00875900 -0.00003000 0.04272400
v -0.00875900 -0.00003000 0.04272400
v -0.00875900 -0.00003000 0.04272400
v -0.00875900 -0.00003000 0.04272400
v -0.00875900 -0.00003000 0.04272400
v 0.00226300 -0.00008400 0.04726300
v 0.00226300 -0.00008400 0.04726300
v 0.00226300 -0.00008400 0.04726300
v 0.00226300 -0.00008400 0.04726300
v 0.00226300 -0.00008400 0.04726300
v 0.00226300 -0.00008400 0.04726300
v 0.00226300 -0.00008400 0.04726300
v 0.00226300 -0.00008400 0.04726300
v 0.00226900 -0.00003600 0.05374600
v 0.00226900 -0.00003600 0.05374600
v 0.00226900 -0.00003600 0.05374600
v 0.00000000 0.00155900 0.05380400
v 0.00000000 0.00155900 0.05380400
v 0.00000000 0.00155900 0.05380400
v 0.00000000 0.00155900 0.05380400
v 0.00000000 0.00155900 0.05380400
v 0.00000000 0.00155900 0.05380400
v 0.00000000 0.00155900 0.05380400
v 0.00000000 0.00155900 0.05380400
v 0.00000000 0.00155900 0.05380400
v 0.00000000 0.00148900 0.04500000
v 0.00000000 0.00148900 0.04500000
v 0.00000000 0.00148900 0.04500000
v 0.00000000 0.00148900 0.04500000
v 0.00000000 0.00148900 0.04500000
v 0.00000000 0.00148900 0.04500000
v 0.00000000 0.00148900 0.04500000
v 0.00000000 0.00148900 0.04500000
v 0.00000000 0.00156100 0.03619600
v 0.00000000 0.00156100 0.03619600
v 0.00000000 0.00156100 0.03619600
v 0.00000000 0.00156100 0.03619600
v 0.00000000 0.00156100 0.03619600
v 0.00000000 0.00156100 0.03619600
v 0.00000000 0.00156100 0.03619600
v 0.00227000 -0.00003400 0.03624900
v 0.00227000 -0.00003400 0.03624900
v 0.00227000 -0.00003400 0.03624900
v 0.00227000 -0.00003400 0.03624900
v 0.00224800 -0.00007600 0.04275200
v 0.00224800 -0.00007600 0.04275200
v 0.00224800 -0.00007600 0.04275200
v 0.00224800 -0.00007600 0.04275200
v 0.00224800 -0.00007600 0.04275200
v 0.00224800 -0.00007600 0.04275200
v -0.00226200 -0.00008400 0.04726300
v -0.00226200 -0.00008400 0.04726300
v -0.00226200 -0.00008400 0.04726300
v -0.00226200 -0.00008400 0.04726300
v -0.00226200 -0.00008400 0.04726300
v -0.00226200 -0.00008400 0.04726300
v -0.00226200 -0.00008400 0.04726300
v -0.00226200 -0.00008400 0.04726300
v -0.00569200 0.00001100 0.05360400
v -0.00569200 0.00001100 0.05360400
v -0.00569200 0.00001100 0.05360400
v -0.00569200 0.00001100 0.05360400
v -0.00569200 0.00001100 0.05360400
v -0.00569200 0.00001100 0.05360400
v 0.00686900 0.00935200 0.05310300
v 0.00686900 0.00935200 0.05310300
v 0.00686900 0.00935200 0.05310300
v 0.00686900 0.00935200 0.05310300
v 0.00686900 0.00935200 0.05310300
v 0.00686900 0.00935200 0.05310300
v -0.00786100 0.00935500 0.05219100
v -0.00786100 0.00935500 0.05219100
v -0.00786100 0.00935500 0.05219100
v -0.00786100 0.00935500 0.05219100
v -0.00786100 0.00935500 0.05219100
v 0.00344500 0.00938700 0.04705700
v 0.00344500 0.00938700 0.04705700
v 0.00344500 0.00938700 0.04705700
v 0.00344500 0.00938700 0.04705700
v 0.00344500 0.00938700 0.04705700
v 0.00878600 0.00934800 0.05057100
v 0.00878600 0.00934800 0.05057100
v 0.00878600 0.00934800 0.05057100
v 0.00878600 0.00934800 0.05057100
v 0.00878600 0.00934800 0.05057100
v 0.00878600 0.00934800 0.05057100
v 0.00878600 0.00934800 0.05057100
v 0.00878600 0.00934800 0.05057100
v 0.00392400 0.00939000 0.04573400
v 0.00392400 0.00939000 0.04573400
v 0.00392400 0.00939000 0.04573400
v 0.00392400 0.00939000 0.04573400
v 0.00392400 0.00939000 0.04573400
v 0.00392400 0.00939000 0.04573400
v 0.00392400 0.00939000 0.04573400
v -0.00073000 0.00939200 0.04108000
v -0.00073000 0.00939200 0.04108000
v -0.00073000 0.00939200 0.04108000
v -0.00073000 0.00939200 0.04108000
v -0.00073000 0.00939200 0.04108000
v -0.00073000 0.00939200 0.04108000
v -0.00073000 0.00939200 0.04108000
v 0.00303800 0.00943400 0.04465300
v 0.00303800 0.00943400 0.04465300
v 0.00303800 0.00943400 0.04465300
v 0.00303800 0.00943400 0.04465300
v 0.00303800 0.00943400 0.04465300
v 0.00303800 0.00943400 0.04465300
v 0.00073400 0.00939000 0.04107700
v 0.00073400 0.00939000 0.04107700
v 0.00073400 0.00939000 0.04107700
v 0.00073400 0.00939000 0.04107700
v 0.00073400 0.00939000 0.04107700
v 0.00073400 0.00939000 0.04107700
v 0.00205700 0.00938700 0.04155500
v 0.00205700 0.00938700 0.04155500
v 0.00205700 0.00938700 0.04155500
v 0.00205700 0.00938700 0.04155500
v 0.00205700 0.00938700 0.04155500
v 0.00205700 0.00938700 0.04155500
v 0.00473000 0.00935100 0.05390000
v 0.00473000 0.00935100 0.05390000
v 0.00473000 0.00935100 0.05390000
v 0.00473000 0.00935100 0.05390000
v 0.00473000 0.00935100 0.05390000
v 0.00473000 0.00935100 0.05390000
v -0.00073300 0.00939000 0.04892300
v -0.00073300 0.00939000 0.04892300
v -0.00073300 0.00939000 0.04892300
v -0.00073300 0.00939000 0.04892300
v -0.00073300 0.00939000 0.04892300
v -0.00073300 0.00939000 0.04892300
v -0.00073300 0.00939000 0.04892300
v -0.00073300 0.00939000 0.04892300
v -0.00205600 0.00938700 0.04844500
v -0.00205600 0.00938700 0.04844500
v -0.00205600 0.00938700 0.04844500
v -0.00205600 0.00938700 0.04844500
v -0.00205600 0.00938700 0.04844500
v 0.00707500 -0.00001900 0.05276900
v 0.00707500 -0.00001900 0.05276900
v 0.00707500 -0.00001900 0.05276900
v 0.00707500 -0.00001900 0.05276900
v 0.00707500 -0.00001900 0.05276900
v 0.00867500 -0.00000700 0.05031900
v 0.00867500 -0.00000700 0.05031900
v 0.00867500 -0.00000700 0.05031900
v 0.00867500 -0.00000700 0.05031900
v 0.00867500 -0.00000700 0.05031900
v 0.00749300 0.00939500 0.04425100
v 0.00749300 0.00939500 0.04425100
v 0.00749300 0.00939500 0.04425100
v 0.00749300 0.00939500 0.04425100
v 0.00749300 0.00939500 0.04425100
v 0.00749300 0.00939500 0.04425100
v 0.00749300 0.00939500 0.04425100
v 0.00733100 0.00144200 0.04408000
v 0.00733100 0.00144200 0.04408000
v 0.00733100 0.00144200 0.04408000
v 0.00733100 0.00144200 0.04408000
v 0.00733100 0.00144200 0.04408000
v 0.00411500 0.00143400 0.04404100
v 0.00411500 0.00143400 0.04404100
v 0.00411500 0.00143400 0.04404100
v 0.00411500 0.00143400 0.04404100
v 0.00091400 0.00144000 0.04092500
v 0.00091400 0.00144000 0.04092500
v 0.00091400 0.00144000 0.04092500
v 0.00091400 0.00144000 0.04092500
v 0.00267500 0.00142800 0.04171300
v 0.00267500 0.00142800 0.04171300
v 0.00267500 0.00142800 0.04171300
v 0.00267500 0.00142800 0.04171300
v 0.00267500 0.00142800 0.04171300
v 0.00267500 0.00142800 0.04171300
v 0.00267500 0.00142800 0.04171300
v -0.00091600 0.00144200 0.03767300
v -0.00091600 0.00144200 0.03767300
v -0.00091600 0.00144200 0.03767300
v -0.00091600 0.00144200 0.03767300
v -0.00091600 0.00144200 0.03767300
v -0.00407300 0.00144200 0.04409000
v -0.00407300 0.00144200 0.04409000
v -0.00407300 0.00144200 0.04409000
v -0.00394500 0.00940000 0.04425400
v -0.00394500 0.00940000 0.04425400
v -0.00394500 0.00940000 0.04425400
v -0.00394500 0.00940000 0.04425400
v -0.00394500 0.00940000 0.04425400
v -0.00394500 0.00940000 0.04425400
v -0.00394500 0.00940000 0.04425400
v -0.00394500 0.00940000 0.04425400
v -0.00270700 0.00938400 0.04193900
v -0.00270700 0.00938400 0.04193900
v -0.00270700 0.00938400 0.04193900
v -0.00270700 0.00938400 0.04193900
v -0.00270700 0.00938400 0.04193900
v -0.00270700 0.00938400 0.04193900
v -0.00270700 0.00938400 0.04193900
v -0.00304500 0.00142000 0.04195700
v -0.00304500 0.00142000 0.04195700
v -0.00304500 0.00142000 0.04195700
v -0.00304500 0.00142000 0.04195700
v -0.00304500 0.00142000 0.04195700
v -0.00304500 0.00142000 0.04195700
v -0.00304500 0.00142000 0.04195700
v -0.00749200 0.00939400 0.03750200
v -0.00749200 0.00939400 0.03750200
v -0.00749200 0.00939400 0.03750200
v -0.00749200 0.00939400 0.03750200
v -0.00090900 0.00144200 0.04092700
v -0.00090900 0.00144200 0.04092700
v -0.00090900 0.00144200 0.04092700
v -0.00090900 0.00144200 0.04092700
v -0.00497200 0.00939300 0.05243800
v -0.00497200 0.00939300 0.05243800
v -0.00497200 0.00939300 0.05243800
v -0.00497200 0.00939300 0.05243800
v -0.00497200 0.00939300 0.05243800
v -0.00714100 0.00143100 0.05044200
v -0.00714100 0.00143100 0.05044200
v -0.00714100 0.00143100 0.05044200
v -0.00714100 0.00143100 0.05044200
v -0.00714100 0.00143100 0.05044200
v -0.00725800 0.00938800 0.05068900
v -0.00725800 0.00938800 0.05068900
v -0.00725800 0.00938800 0.05068900
v -0.00725800 0.00938800 0.05068900
v -0.00725800 0.00938800 0.05068900
v -0.00725800 0.00938800 0.05068900
v -0.00725800 0.00938800 0.05068900
v -0.00725800 0.00938800 0.05068900
v -0.00749200 0.00939500 0.04574900
v -0.00749200 0.00939500 0.04574900
v -0.00749200 0.00939500 0.04574900
v -0.00749200 0.00939500 0.04574900
v -0.00749200 0.00939500 0.04574900
v -0.00411500 0.00143300 0.04595900
v -0.00411500 0.00143300 0.04595900
v -0.00411500 0.00143300 0.04595900
v -0.00411500 0.00143300 0.04595900
v -0.00411500 0.00143300 0.04595900
v -0.00091300 0.00144000 0.04907500
v -0.00091300 0.00144000 0.04907500
v -0.00091300 0.00144000 0.04907500
v -0.00091300 0.00144000 0.04907500
v -0.00091300 0.00144000 0.04907500
v -0.00267500 0.00142700 0.04828700
v -0.00267500 0.00142700 0.04828700
v -0.00267500 0.00142700 0.04828700
v -0.00267500 0.00142700 0.04828700
v -0.00267500 0.00142700 0.04828700
v -0.00267500 0.00142700 0.04828700
v -0.00091600 0.00144300 0.05232800
v -0.00091600 0.00144300 0.05232800
v -0.00091600 0.00144300 0.05232800
v -0.00091600 0.00144300 0.05232800
v -0.00091600 0.00144300 0.05232800
v -0.00509000 0.00143200 0.05222800
v -0.00509000 0.00143200 0.05222800
v -0.00509000 0.00143200 0.05222800
v -0.00509000 0.00143200 0.05222800
v -0.00509000 0.00143200 0.05222800
v -0.00509000 0.00143200 0.05222800
v 0.00736500 0.00939400 0.05032700
v 0.00736500 0.00939400 0.05032700
v 0.00736500 0.00939400 0.05032700
v 0.00736500 0.00939400 0.05032700
v 0.00736500 0.00939400 0.05032700
v 0.00736500 0.00939400 0.05032700
v 0.00736500 0.00939400 0.05032700
v 0.00492500 0.00143700 0.05226300
v 0.00492500 0.00143700 0.05226300
v 0.00492500 0.00143700 0.05226300
v 0.00492500 0.00143700 0.05226300
v 0.00492500 0.00143700 0.05226300
v 0.00534400 0.00938600 0.05235600
v 0.00534400 0.00938600 0.05235600
v 0.00534400 0.00938600 0.05235600
v 0.00534400 0.00938600 0.05235600
v 0.00534400 0.00938600 0.05235600
v 0.00534400 0.00938600 0.05235600
v 0.00534400 0.00938600 0.05235600
v 0.00091600 0.00144400 0.05232700
v 0.00091600 0.00144400 0.05232700
v 0.00091600 0.00144400 0.05232700
v 0.00091600 0.00144400 0.05232700
v 0.00091600 0.00144400 0.05232700
v 0.00075000 0.00939500 0.05249200
v 0.00075000 0.00939500 0.05249200
v 0.00075000 0.00939500 0.05249200
v 0.00075000 0.00939500 0.05249200
v 0.00075000 0.00939500 0.05249200
v 0.00075000 0.00939500 0.05249200
v 0.00075000 0.00939500 0.05249200
v 0.00095900 0.00143300 0.04911500
v 0.00095900 0.00143300 0.04911500
v 0.00095900 0.00143300 0.04911500
v 0.00095900 0.00143300 0.04911500
v 0.00095900 0.00143300 0.04911500
v 0.00407600 0.00144000 0.04591300
v 0.00407600 0.00144000 0.04591300
v 0.00407600 0.00144000 0.04591300
v 0.00407600 0.00144000 0.04591300
v 0.00407600 0.00144000 0.04591300
v 0.00328700 0.00142700 0.04767600
v 0.00328700 0.00142700 0.04767600
v 0.00328700 0.00142700 0.04767600
v 0.00328700 0.00142700 0.04767600
v 0.00328700 0.00142700 0.04767600
v 0.00328700 0.00142700 0.04767600
v 0.00328700 0.00142700 0.04767600
v 0.00731000 0.00143600 0.04958100
v 0.00731000 0.00143600 0.04958100
v 0.00731000 0.00143600 0.04958100
v 0.00731000 0.00143600 0.04958100
v 0.00731000 0.00143600 0.04958100
v 0.00660800 0.00141300 0.05116900
v 0.00660800 0.00141300 0.05116900
v 0.00660800 0.00141300 0.05116900
v 0.00660800 0.00141300 0.05116900
v 0.00660800 0.00141300 0.05116900
v -0.00196700 0.01089000 0.04407700
v -0.00196700 0.01089000 0.04407700
v -0.00196700 0.01089000 0.04407700
v -0.00196700 0.01089000 0.04407700
v -0.00196700 0.01089000 0.04407700
v -0.00196700 0.01089000 0.04407700
v -0.00245500 0.01089600 0.04326900
v -0.00245500 0.01089600 0.04326900
v -0.00245500 0.01089600 0.04326900
v -0.00245500 0.01089600 0.04326900
v -0.00245500 0.01089600 0.04326900
v -0.00245500 0.01089600 0.04326900
v -0.00072300 0.01089500 0.04287800
v -0.00072300 0.01089500 0.04287800
v -0.00072300 0.01089500 0.04287800
v -0.00072300 0.01089500 0.04287800
v -0.00072300 0.01089500 0.04287800
v -0.00072300 0.01089500 0.04287800
v -0.00072300 0.01089500 0.04287800
v -0.00072300 0.01089500 0.04287800
v 0.00215500 0.00941800 0.04456400
v 0.00215500 0.00941800 0.04456400
v 0.00215500 0.00941800 0.04456400
v 0.00215500 0.00941800 0.04456400
v 0.00215500 0.00941800 0.04456400
v 0.00215500 0.00941800 0.04456400
v 0.00072200 0.00943400 0.04299000
v 0.00072200 0.00943400 0.04299000
v 0.00072200 0.00943400 0.04299000
v 0.00072200 0.00943400 0.04299000
v 0.00072200 0.00943400 0.04299000
v 0.00072200 0.00943400 0.04299000
v 0.00072200 0.00943400 0.04299000
v 0.00144800 0.00942900 0.04656800
v 0.00144800 0.00942900 0.04656800
v 0.00144800 0.00942900 0.04656800
v 0.00144800 0.00942900 0.04656800
v 0.00144800 0.00942900 0.04656800
v 0.00144800 0.00942900 0.04656800
v 0.00086100 0.00191300 0.04643500
v 0.00086100 0.00191300 0.04643500
v 0.00086100 0.00191300 0.04643500
v 0.00086100 0.00191300 0.04643500
v 0.00086100 0.00191300 0.04643500
v 0.00152600 0.00191200 0.04408200
v 0.00152600 0.00191200 0.04408200
v 0.00152600 0.00191200 0.04408200
v 0.00152600 0.00191200 0.04408200
v 0.00152600 0.00191200 0.04408200
v -0.00781800 -0.00004000 0.05191800
v -0.00781800 -0.00004000 0.05191800
v -0.00781800 -0.00004000 0.05191800
v -0.00781800 -0.00004000 0.05191800
v -0.00781800 -0.00004000 0.05191800
v -0.00877200 0.00002800 0.03626400
v -0.00877200 0.00002800 0.03626400
v -0.00877200 0.00002800 0.03626400
v -0.00889300 0.00934200 0.04990000
v -0.00889300 0.00934200 0.04990000
v -0.00889300 0.00934200 0.04990000
v -0.00889300 0.00934200 0.04990000
v -0.00889300 0.00934200 0.04990000
v -0.00889300 0.00934200 0.04990000
v -0.00889300 0.00934200 0.04990000
v -0.00889300 0.00934200 0.04990000
v 0.00876300 0.00001100 0.03626600
v 0.00876300 0.00001100 0.03626600
v 0.00876300 0.00001100 0.03626600
v 0.00876300 0.00001100 0.03626600
v -0.00534000 0.00935500 0.05381900
v -0.00534000 0.00935500 0.05381900
v -0.00534000 0.00935500 0.05381900
v -0.00534000 0.00935500 0.05381900
v -0.00534000 0.00935500 0.05381900
v -0.00534000 0.00935500 0.05381900
v -0.00534000 0.00935500 0.05381900
v -0.00534000 0.00935500 0.05381900
v -0.00733200 0.00144300 0.04408000
v -0.00733200 0.00144300 0.04408000
v -0.00733200 0.00144300 0.04408000
v -0.00733200 0.00144300 0.04408000
v -0.00733200 0.00144300 0.04408000
v -0.00749700 0.00939500 0.04424700
v -0.00749700 0.00939500 0.04424700
v -0.00749700 0.00939500 0.04424700
v -0.00749700 0.00939500 0.04424700
v -0.00749700 0.00939500 0.04424700
v -0.00749700 0.00939500 0.04424700
v -0.00749700 0.00939500 0.04424700
v -0.00749700 0.00939500 0.04424700
v -0.00733300 0.00144300 0.03767200
v -0.00733300 0.00144300 0.03767200
v -0.00733300 0.00144300 0.03767200
v -0.00733300 0.00144300 0.03767200
v -0.00733300 0.00144300 0.03767200
v -0.00733300 0.00144300 0.03767200
v -0.00075600 0.00939400 0.03750200
v -0.00075600 0.00939400 0.03750200
v -0.00075600 0.00939400 0.03750200
v -0.00075600 0.00939400 0.03750200
v -0.00075600 0.00939400 0.03750200
v -0.00075600 0.00939400 0.03750200
v 0.00254600 0.00943700 0.04679800
v 0.00254600 0.00943700 0.04679800
v 0.00254600 0.00943700 0.04679800
v 0.00254600 0.00943700 0.04679800
v 0.00254600 0.00943700 0.04679800
v 0.00254600 0.00943700 0.04679800
v 0.00254600 0.00943700 0.04679800
v 0.00207800 0.00943400 0.04267500
v 0.00207800 0.00943400 0.04267500
v 0.00207800 0.00943400 0.04267500
v 0.00207800 0.00943400 0.04267500
v 0.00207800 0.00943400 0.04267500
v 0.00207800 0.00943400 0.04267500
v 0.00207800 0.00943400 0.04267500
v 0.00733300 0.00144200 0.03767300
v 0.00733300 0.00144200 0.03767300
v 0.00733300 0.00144200 0.03767300
v 0.00733300 0.00144200 0.03767300
v 0.00733300 0.00144200 0.03767300
v 0.00749800 0.00939400 0.03750700
v 0.00749800 0.00939400 0.03750700
v 0.00749800 0.00939400 0.03750700
v 0.00749800 0.00939400 0.03750700
v 0.00749800 0.00939400 0.03750700
v 0.00091600 0.00144200 0.03767300
v 0.00091600 0.00144200 0.03767300
v 0.00091600 0.00144200 0.03767300
v 0.00091600 0.00144200 0.03767300
v 0.00091600 0.00144200 0.03767300
v 0.00091600 0.00144200 0.03767300
v 0.00392300 0.00939000 0.04426700
v 0.00392300 0.00939000 0.04426700
v 0.00392300 0.00939000 0.04426700
v 0.00392300 0.00939000 0.04426700
v 0.00392300 0.00939000 0.04426700
v 0.00392300 0.00939000 0.04426700
v 0.00392300 0.00939000 0.04426700
v 0.00075400 0.00939500 0.03750300
v 0.00075400 0.00939500 0.03750300
v 0.00075400 0.00939500 0.03750300
v 0.00075400 0.00939500 0.03750300
v 0.00075400 0.00939500 0.03750300
v 0.00075400 0.00939500 0.03750300
v 0.00075400 0.00939500 0.03750300
v 0.00337600 0.00939100 0.04281500
v 0.00337600 0.00939100 0.04281500
v 0.00337600 0.00939100 0.04281500
v 0.00337600 0.00939100 0.04281500
v 0.00337600 0.00939100 0.04281500
v 0.00337600 0.00939100 0.04281500
v -0.00733200 0.00144400 0.04592000
v -0.00733200 0.00144400 0.04592000
v -0.00733200 0.00144400 0.04592000
v -0.00733200 0.00144400 0.04592000
v -0.00733200 0.00144400 0.04592000
v -0.00392300 0.00939000 0.04573300
v -0.00392300 0.00939000 0.04573300
v -0.00392300 0.00939000 0.04573300
v -0.00392300 0.00939000 0.04573300
v -0.00392300 0.00939000 0.04573300
v -0.00392300 0.00939000 0.04573300
v -0.00392300 0.00939000 0.04573300
v -0.00075400 0.00939500 0.05249700
v -0.00075400 0.00939500 0.05249700
v -0.00075400 0.00939500 0.05249700
v -0.00075400 0.00939500 0.05249700
v -0.00075400 0.00939500 0.05249700
v -0.00337500 0.00939100 0.04718500
v -0.00337500 0.00939100 0.04718500
v -0.00337500 0.00939100 0.04718500
v -0.00337500 0.00939100 0.04718500
v -0.00337500 0.00939100 0.04718500
v -0.00337500 0.00939100 0.04718500
v 0.00733200 0.00144300 0.04592000
v 0.00733200 0.00144300 0.04592000
v 0.00733200 0.00144300 0.04592000
v 0.00733200 0.00144300 0.04592000
v 0.00733200 0.00144300 0.04592000
v 0.00073400 0.00939000 0.04892300
v 0.00073400 0.00939000 0.04892300
v 0.00073400 0.00939000 0.04892300
v 0.00073400 0.00939000 0.04892300
v 0.00073400 0.00939000 0.04892300
v 0.00073400 0.00939000 0.04892300
v 0.00749700 0.00939500 0.04575400
v 0.00749700 0.00939500 0.04575400
v 0.00749700 0.00939500 0.04575400
v 0.00749700 0.00939500 0.04575400
v 0.00749700 0.00939500 0.04575400
v 0.00749700 0.00939500 0.04575400
v 0.00218600 0.00939100 0.04837500
v 0.00218600 0.00939100 0.04837500
v 0.00218600 0.00939100 0.04837500
v 0.00218600 0.00939100 0.04837500
v 0.00218600 0.00939100 0.04837500
v 0.00218600 0.00939100 0.04837500
v -0.00215300 0.01088700 0.04542000
v -0.00215300 0.01088700 0.04542000
v -0.00215300 0.01088700 0.04542000
v -0.00215300 0.01088700 0.04542000
v -0.00215300 0.01088700 0.04542000
v -0.00215300 0.01088700 0.04542000
v -0.00107000 0.01088400 0.04698100
v -0.00107000 0.01088400 0.04698100
v -0.00107000 0.01088400 0.04698100
v -0.00107000 0.01088400 0.04698100
v -0.00107000 0.01088400 0.04698100
v -0.00107000 0.01088400 0.04698100
v -0.00300900 0.01089400 0.04527900
v -0.00300900 0.01089400 0.04527900
v -0.00300900 0.01089400 0.04527900
v -0.00300900 0.01089400 0.04527900
v -0.00300900 0.01089400 0.04527900
v -0.00300900 0.01089400 0.04527900
v -0.00187100 0.01090700 0.04741100
v -0.00187100 0.01090700 0.04741100
v -0.00187100 0.01090700 0.04741100
v -0.00187100 0.01090700 0.04741100
v -0.00187100 0.01090700 0.04741100
v -0.00187100 0.01090700 0.04741100
v -0.00880400 0.00155900 0.04500000
v -0.00880400 0.00155900 0.04500000
v -0.00880400 0.00155900 0.04500000
v -0.00880400 0.00155900 0.04500000
v -0.00880400 0.00155900 0.04500000
v -0.00880400 0.00155900 0.04500000
v -0.00880400 0.00155900 0.04500000
v -0.00880400 0.00155900 0.04500000
v 0.00880900 0.00156500 0.04500000
v 0.00880900 0.00156500 0.04500000
v 0.00880900 0.00156500 0.04500000
v 0.00880900 0.00156500 0.04500000
v 0.00880900 0.00156500 0.04500000
v 0.00880900 0.00156500 0.04500000
v 0.00880900 0.00156500 0.04500000
v 0.00880900 0.00156500 0.04500000
vn 0.95580000 0.10730000 0.27380000
vn -0.00920000 0.99980000 0.01600000
vn 0.89920000 0.02170000 -0.43690000
vn -0.03490000 0.99940000 -0.00470000
vn 0.97430000 0.02730000 0.22340000
vn 0.00490000 0.99990000 -0.00940000
vn 0.91300000 -0.02740000 -0.40690000
vn 0.00040000 0.99990000 -0.01370000
vn -0.00400000 0.99990000 -0.01060000
vn 0.45440000 0.08750000 0.88650000
vn -0.20290000 0.01910000 0.97900000
vn 0.01130000 0.99940000 -0.03270000
vn -0.24130000 0.07890000 0.96720000
vn 0.01820000 0.99980000 0.00030000
vn 0.00040000 0.99990000 -0.01370000
vn -0.03490000 0.99940000 -0.00470000
vn 0.45440000 0.08750000 0.88650000
vn 0.95580000 0.10730000 0.27380000
vn 0.51960000 -0.01810000 0.85420000
vn 0.00490000 0.99990000 -0.00940000
vn 0.01150000 0.99990000 -0.00690000
vn 0.60770000 0.15770000 -0.77830000
vn 0.91300000 -0.02740000 -0.40690000
vn -0.00950000 0.14740000 -0.98900000
vn 0.00310000 1.00000000 0.00740000
vn 0.01150000 0.99990000 -0.00690000
vn -0.01520000 0.99990000 0.00650000
vn 0.60770000 0.15770000 -0.77830000
vn 0.33310000 -0.09750000 -0.93780000
vn -0.00500000 0.99990000 -0.01200000
vn 0.00490000 0.99990000 -0.00940000
vn 0.01150000 0.99990000 -0.00690000
vn -0.00920000 0.99980000 0.01600000
vn -0.01520000 0.99990000 0.00650000
vn -0.70620000 0.09080000 0.70210000
vn -0.99500000 -0.09540000 0.02810000
vn -0.73160000 0.13900000 0.66740000
vn -0.34890000 0.13800000 -0.92700000
vn -0.00400000 0.99990000 -0.01060000
vn -0.69710000 -0.07610000 -0.71290000
vn 0.01820000 0.99980000 0.00030000
vn 0.02040000 -0.07850000 -0.99670000
vn -0.00920000 0.99980000 0.01600000
vn -0.99500000 -0.09540000 0.02810000
vn -0.03490000 0.99940000 -0.00470000
vn -0.92020000 0.21710000 -0.32570000
vn -0.69710000 -0.07610000 -0.71290000
vn 0.01820000 0.99980000 0.00030000
vn 0.00040000 0.99990000 -0.01370000
vn 0.00310000 1.00000000 0.00740000
vn -0.70620000 0.09080000 0.70210000
vn -0.10990000 -0.03250000 0.99340000
vn -0.01520000 0.99990000 0.00650000
vn 0.24760000 0.96750000 0.05210000
vn 0.97930000 0.07400000 0.18860000
vn 0.60770000 0.08560000 0.78960000
vn 0.69390000 -0.02740000 0.71950000
vn 0.06770000 0.99440000 0.08110000
vn -0.05320000 0.98830000 -0.14290000
vn 0.02040000 -0.07850000 -0.99670000
vn 0.03620000 0.99490000 -0.09460000
vn 0.35690000 0.17410000 -0.91780000
vn -0.34890000 0.13800000 -0.92700000
vn 0.03950000 0.99430000 -0.09940000
vn 0.05160000 0.99630000 0.06920000
vn 0.60770000 0.08560000 0.78960000
vn 0.00220000 0.98190000 0.18950000
vn 0.06770000 0.99440000 0.08110000
vn 0.01860000 0.09480000 0.99530000
vn 0.14930000 0.98810000 -0.03800000
vn 0.05740000 0.99800000 -0.02640000
vn 0.03620000 0.99490000 -0.09460000
vn 0.35690000 0.17410000 -0.91780000
vn 0.82030000 -0.05450000 -0.56940000
vn 0.89660000 0.08640000 -0.43430000
vn 0.97930000 0.07400000 0.18860000
vn 0.24760000 0.96750000 0.05210000
vn 0.05740000 0.99800000 -0.02640000
vn 0.99010000 0.03110000 0.13710000
vn 0.89660000 0.08640000 -0.43430000
vn -0.21140000 0.06310000 0.97540000
vn -0.03040000 0.99670000 0.07530000
vn 0.00220000 0.98190000 0.18950000
vn 0.05160000 0.99630000 0.06920000
vn -0.35620000 0.02580000 0.93400000
vn 0.59700000 -0.02080000 0.80200000
vn -0.35620000 0.02580000 0.93400000
vn -0.97070000 -0.02030000 0.23940000
vn -0.22160000 0.95210000 0.21080000
vn -0.03040000 0.99670000 0.07530000
vn -0.04290000 0.99900000 0.01180000
vn 0.21150000 0.06310000 -0.97530000
vn -0.05320000 0.98830000 -0.14290000
vn -0.59700000 -0.02080000 -0.80200000
vn 0.35620000 0.02580000 -0.93400000
vn 0.03950000 0.99430000 -0.09940000
vn -0.03970000 0.99780000 -0.05320000
vn -0.03970000 0.99780000 -0.05320000
vn -0.95900000 0.08210000 -0.27110000
vn -0.04290000 0.99900000 0.01180000
vn -0.59700000 -0.02080000 -0.80200000
vn -0.54190000 0.81740000 -0.19550000
vn -0.97070000 -0.02030000 0.23940000
vn -0.03350000 0.99940000 -0.00270000
vn -0.03980000 0.99880000 -0.02850000
vn -0.99790000 -0.03840000 -0.05170000
vn -0.95300000 0.15090000 -0.26260000
vn -0.80430000 -0.05650000 -0.59150000
vn -0.03750000 0.99890000 -0.02830000
vn -0.01980000 0.99810000 -0.05760000
vn -0.03750000 0.99890000 -0.02830000
vn -0.29380000 -0.05140000 -0.95450000
vn -0.58810000 0.15000000 -0.79480000
vn -0.80430000 -0.05650000 -0.59150000
vn 0.00030000 0.99880000 0.04950000
vn 0.01920000 0.99930000 0.03340000
vn -0.00820000 0.99930000 0.03770000
vn 0.51960000 -0.01810000 0.85420000
vn 0.45440000 0.08750000 0.88650000
vn 0.01660000 0.99880000 0.04560000
vn -0.20290000 0.01910000 0.97900000
vn -0.24130000 0.07890000 0.96720000
vn -0.00820000 0.99930000 0.03770000
vn -0.03210000 0.99920000 0.02230000
vn -0.84210000 0.00590000 0.53930000
vn -0.01950000 0.99870000 0.04650000
vn -0.03650000 0.99850000 0.04150000
vn -0.20290000 0.01910000 0.97900000
vn 0.33310000 -0.09750000 -0.93780000
vn 0.00120000 0.99850000 -0.05410000
vn -0.01980000 0.99920000 -0.03600000
vn 0.01680000 0.99890000 -0.04280000
vn -0.00950000 0.14740000 -0.98900000
vn 0.01720000 0.99900000 -0.04090000
vn -0.01980000 0.99810000 -0.05760000
vn -0.29380000 -0.05140000 -0.95450000
vn -0.84210000 0.00590000 0.53930000
vn -0.04870000 0.99880000 0.00750000
vn -0.04840000 0.99870000 0.01790000
vn -0.03210000 0.99920000 0.02230000
vn -0.03350000 0.99940000 -0.00270000
vn -0.99790000 -0.03840000 -0.05170000
vn -0.87650000 0.11550000 0.46730000
vn -0.00000000 -0.01370000 -0.99990000
vn -0.00760000 -0.02240000 -0.99970000
vn -0.00250000 -0.01880000 -0.99980000
vn -0.99980000 -0.02170000 -0.00470000
vn -0.05500000 0.99850000 -0.00020000
vn 0.00000000 0.99840000 -0.05730000
vn -0.00040000 0.99850000 -0.05430000
vn -0.99990000 -0.01320000 0.00270000
vn -0.99990000 -0.01710000 0.00190000
vn -0.04530000 0.99900000 -0.00190000
vn -0.00010000 0.99840000 -0.05610000
vn 0.00280000 -0.01890000 -0.99980000
vn 0.99990000 -0.00420000 0.01000000
vn 0.99970000 -0.02280000 -0.00620000
vn 0.99980000 -0.01810000 0.00050000
vn 0.00740000 -0.02220000 -0.99970000
vn 0.00020000 0.99840000 -0.05630000
vn 0.00000000 0.99840000 -0.05730000
vn 0.04560000 0.99900000 -0.00190000
vn 0.05580000 0.99840000 -0.00010000
vn -0.00000000 -0.01370000 -0.99990000
vn -0.21140000 0.06310000 0.97540000
vn 0.95900000 0.08210000 0.27110000
vn 0.59700000 -0.02080000 0.80200000
vn -0.00030000 1.00000000 0.00010000
vn 0.00030000 1.00000000 -0.00020000
vn 0.05740000 0.99800000 -0.02640000
vn 0.05160000 0.99630000 0.06920000
vn 0.14930000 0.98810000 -0.03800000
vn 0.97070000 -0.02030000 -0.23940000
vn 0.95900000 0.08210000 0.27110000
vn 0.59700000 -0.02080000 0.80200000
vn 0.24760000 0.96750000 0.05210000
vn 0.06770000 0.99440000 0.08110000
vn 0.95900000 0.08210000 0.27110000
vn 0.97070000 -0.02030000 -0.23940000
vn 0.21150000 0.06310000 -0.97530000
vn -0.00030000 1.00000000 0.00010000
vn 0.35620000 0.02580000 -0.93400000
vn 0.03620000 0.99490000 -0.09460000
vn 0.97070000 -0.02030000 -0.23940000
vn 0.03950000 0.99430000 -0.09940000
vn 0.35620000 0.02580000 -0.93400000
vn 0.14930000 0.98810000 -0.03800000
vn -0.00500000 0.99990000 -0.01200000
vn -0.00210000 0.99990000 -0.01300000
vn -0.29380000 -0.05140000 -0.95450000
vn -0.58810000 0.15000000 -0.79480000
vn -0.00950000 0.14740000 -0.98900000
vn 0.01160000 -0.01940000 0.99970000
vn 0.34920000 -0.01410000 0.93690000
vn 0.00310000 -1.00000000 0.00910000
vn 0.39080000 -0.02420000 0.92020000
vn 0.01140000 -0.02000000 0.99970000
vn 0.00760000 -0.99990000 0.00730000
vn 0.99960000 0.00550000 0.02690000
vn 0.00760000 -0.81860000 -0.57430000
vn 0.00830000 -0.99990000 0.00770000
vn 0.99980000 -0.01810000 0.00050000
vn 0.99970000 -0.02280000 -0.00620000
vn 0.00730000 -1.00000000 -0.00610000
vn 0.00810000 -0.81880000 0.57400000
vn -0.04120000 0.02230000 0.99890000
vn 0.57510000 -0.81800000 0.00650000
vn -0.01420000 -0.99990000 0.00730000
vn -0.91170000 -0.01620000 0.41050000
vn -0.99980000 -0.00320000 0.01810000
vn -0.99970000 -0.01960000 0.01290000
vn -0.00840000 -0.99990000 0.00720000
vn -0.01480000 -0.99990000 -0.00820000
vn -0.00840000 -0.99990000 0.00720000
vn -0.99980000 -0.00320000 0.01810000
vn -0.00770000 -0.81970000 -0.57270000
vn -0.00990000 -0.99990000 -0.00900000
vn -0.00680000 -1.00000000 -0.00580000
vn -0.00760000 -0.02240000 -0.99970000
vn -0.00250000 -0.01880000 -0.99980000
vn 0.57480000 -0.81830000 -0.00740000
vn 0.57610000 -0.81740000 -0.00670000
vn -0.00680000 -1.00000000 -0.00580000
vn -0.00840000 -0.81990000 0.57240000
vn 0.57480000 -0.81830000 -0.00740000
vn -0.00650000 -0.81750000 0.57590000
vn -0.00840000 -0.81990000 0.57240000
vn -0.00680000 -1.00000000 -0.00580000
vn -0.00990000 -0.99990000 -0.00900000
vn -0.99980000 -0.02170000 -0.00470000
vn -0.99990000 -0.01710000 0.00190000
vn -0.57510000 -0.81800000 0.00650000
vn 0.0