<svg xmlns="http://www.w3.org/2000/svg" viewBox="0 0 960 540" role="img" aria-label="窗边阅读"><title>窗边阅读</title><rect width="960" height="540" fill="#e9e1d1"/><rect x="140" y="62" width="330" height="225" rx="4" fill="#f5f1e6"/><rect x="162" y="82" width="286" height="183" fill="#adc4bb"/><path d="M304 82V265M163 175H448" stroke="#f5f1e6" stroke-width="11"/><path d="M80 304H875V334H80Z" fill="#9b8260"/><path d="M162 334V420M801 334V420" stroke="#7a6953" stroke-width="20"/><path d="M326 282Q391 251 470 281V333Q394 299 326 325Z" fill="#fff9e9"/><path d="M470 281Q538 251 610 282V325Q538 299 470 333Z" fill="#f0e7d2"/><path d="M470 282V332" stroke="#c4b99b" stroke-width="4"/><path d="M680 217H769L757 303H693Z" fill="#ad7655"/><path d="M724 231V116M724 179Q664 122 657 177Q682 215 724 205M724 160Q780 105 792 151Q779 195 724 189" stroke="#66866c" fill="#87a184" stroke-width="8"/><rect x="186" y="252" width="61" height="49" rx="8" fill="#d7bd87"/><path d="M247 261Q279 263 249 288" stroke="#d7bd87" stroke-width="10" fill="none"/><path d="M0 420H960V540H0Z" fill="#f7f4e9"/><text x="52" y="465" font-family="sans-serif" font-size="13" letter-spacing="5" fill="#778779">FIELD NOTES / 墨记素材库</text><text x="52" y="510" font-family="sans-serif" font-size="31" font-weight="600" fill="#365348">窗边阅读</text><text x="909" y="509" text-anchor="end" font-family="sans-serif" font-size="15" fill="#859586">03</text></svg>
